<svg width="48px" height="48px" viewBox="0 0 24 24" id="Layer_1" data-name="Layer 1" xmlns="http://www.w3.org/2000/svg" fill="#969696" stroke="#969696"><g id="SVGRepo_bgCarrier" stroke-width="0"></g><g id="SVGRepo_tracerCarrier" stroke-linecap="round" stroke-linejoin="round"></g><g id="SVGRepo_iconCarrier"><defs><style>.cls-1{fill:none;stroke:#969696;stroke-miterlimit:10;stroke-width:1.91px;}</style></defs><polygon class="cls-1" points="22.5 22.5 1.5 22.5 1.5 20.59 2.46 18.68 21.55 18.68 22.5 20.59 22.5 22.5"></polygon><path class="cls-1" d="M11.75,5.32h.49a9.3,9.3,0,0,1,9.3,9.3v.25a0,0,0,0,1,0,0H2.45a0,0,0,0,1,0,0v-.25A9.3,9.3,0,0,1,11.75,5.32Z"></path><line class="cls-1" x1="12" y1="1.5" x2="12" y2="5.32"></line><line class="cls-1" x1="9.14" y1="1.5" x2="14.86" y2="1.5"></line><rect class="cls-1" x="5.32" y="14.86" width="13.36" height="3.82"></rect></g></svg>